<!DOCTYPE svg PUBLIC "-//W3C//DTD SVG 1.1//EN" "http://www.w3.org/Graphics/SVG/1.1/DTD/svg11.dtd">

<!-- Uploaded to: SVG Repo, www.svgrepo.com, Transformed by: SVG Repo Mixer Tools -->
<svg version="1.1" id="Layer_1" xmlns="http://www.w3.org/2000/svg" xmlns:xlink="http://www.w3.org/1999/xlink" viewBox="-117.76 -117.76 747.52 747.52" xml:space="preserve" width="256px" height="256px" fill="#212121">

<g id="SVGRepo_bgCarrier" stroke-width="0" transform="translate(0,0), scale(1)"/>

<g id="SVGRepo_tracerCarrier" stroke-linecap="round" stroke-linejoin="round"/>

<g id="SVGRepo_iconCarrier"> <polygon style="fill:#212121;" points="188.891,232.217 449.618,116.187 397.913,0 37.729,160.289 80.031,255.345 80.031,512 474.271,512 474.271,232.217 "/> <g> <polygon style="fill:#e6cb5b;" points="173.828,141.481 223.122,119.544 197.33,186.702 148.035,208.639 "/> <polygon style="fill:#e6cb5b;" points="290.016,89.776 339.31,67.838 313.518,134.996 264.224,156.933 "/> </g> <polygon style="fill:#4d5151;" points="156.336,346.674 156.336,308.522 397.966,308.522 397.966,346.674 347.097,346.674 347.097,397.543 397.966,397.543 397.966,435.696 156.336,435.696 156.336,397.543 207.205,397.543 207.205,346.674 "/> <rect x="245.357" y="346.676" style="fill:#212121;" width="63.587" height="50.87"/> </g>

</svg>